<?xml version="1.0" encoding="utf-8"?>
<!-- Generator: Adobe Illustrator 25.4.1, SVG Export Plug-In . SVG Version: 6.00 Build 0)  -->
<svg version="1.1" id="Слой_1" xmlns="http://www.w3.org/2000/svg" xmlns:xlink="http://www.w3.org/1999/xlink" x="0px" y="0px"
	 viewBox="0 0 64 44.4" style="enable-background:new 0 0 64 44.4;" xml:space="preserve">
<style type="text/css">
	.st0{fill:#FFFFFF;}
</style>
<g id="Layer_2">
	<g id="Layer_1-2">
		<path class="st0" d="M50.7,10.3C44.1-0.1,30.4-3.1,20.1,3.5c-4.3,2.8-7.6,6.9-9.2,11.8C3,17.5-1.6,25.6,0.5,33.5
			c1.8,6.5,7.7,11,14.4,10.9h31.7c9.6,0,17.3-7.8,17.3-17.4C63.9,19.1,58.4,12.2,50.7,10.3L50.7,10.3z M29.3,39.1H14.9
			c-5.3,0-9.6-4.2-9.6-9.4c0-4.8,3.4-8.8,8.1-9.5l1.8-0.3l0.4-1.7C17.9,9.1,27,3.6,36,5.8C40.6,7,44.4,9.9,46.7,14l0.6,1.1l1.3,0.2
			c5.8,0.9,10.1,5.9,10.1,11.8c0,1.7-0.3,3.3-1,4.8c-1.9,4.4-6.2,7.2-11,7.2h-12V26.9l3,3c1,1,2.7,1,3.8,0c1-1,1-2.7,0-3.8l-7.5-7.5
			c-1.1-1-2.7-1-3.8,0l-7.5,7.5c-1.1,1-1.1,2.7-0.1,3.8c1,1.1,2.7,1.1,3.8,0.1c0,0,0.1-0.1,0.1-0.1l3-3L29.3,39.1"/>
	</g>
</g>
</svg>
